#N canvas 762 49 821 472 10;
#X obj 26 10 inlet;
#X obj 109 151 inlet;
#X floatatom 26 35 0 0 0 0 - - -;
#X floatatom 109 176 0 0 0 0 - - -;
#X obj 26 62 max 0;
#X floatatom 77 79 0 0 0 0 - - -;
#X obj 109 202 max 0;
#X floatatom 187 219 0 0 0 0 - - -;
#X msg 187 62 0;
#X obj 187 246 outlet;
#X obj 187 36 inlet;
#X text 228 35 Reset bang;
#X text 68 10 Frequency inlet;
#X text 90 133 Amplitude inlet;
#X text 410 25 ** maxStream.pd **;
#X text 366 44 To be used with the fiddle~ patch. Outputs the maximum
values of the stream of frequencies and amplitudes;
#X obj 77 246 outlet;
#X connect 0 0 2 0;
#X connect 1 0 3 0;
#X connect 2 0 4 0;
#X connect 3 0 6 0;
#X connect 4 0 5 0;
#X connect 5 0 4 1;
#X connect 5 0 16 0;
#X connect 6 0 7 0;
#X connect 7 0 6 1;
#X connect 7 0 9 0;
#X connect 8 0 5 0;
#X connect 8 0 7 0;
#X connect 10 0 8 0;
