#N canvas 597 436 775 300 10;
#X obj 26 27 inlet;
#X obj 42 95 inlet~;
#X obj 27 122 *~;
#X obj 26 55 osc~;
#X text 16 7 Frequency;
#X text 37 76 Envelope;
#X obj 123 27 inlet;
#X obj 139 95 inlet~;
#X obj 124 122 *~;
#X obj 123 55 osc~;
#X text 113 7 Frequency;
#X text 134 76 Envelope;
#X obj 222 27 inlet;
#X obj 238 95 inlet~;
#X obj 223 122 *~;
#X obj 222 55 osc~;
#X text 212 7 Frequency;
#X text 233 76 Envelope;
#X obj 315 27 inlet;
#X obj 331 95 inlet~;
#X obj 316 122 *~;
#X obj 315 55 osc~;
#X text 305 7 Frequency;
#X text 326 76 Envelope;
#X obj 411 27 inlet;
#X obj 427 95 inlet~;
#X obj 412 122 *~;
#X obj 411 55 osc~;
#X text 401 7 Frequency;
#X text 422 76 Envelope;
#X obj 504 27 inlet;
#X obj 520 95 inlet~;
#X obj 505 122 *~;
#X obj 504 55 osc~;
#X text 494 7 Frequency;
#X text 515 76 Envelope;
#X obj 598 27 inlet;
#X obj 614 95 inlet~;
#X obj 599 122 *~;
#X obj 598 55 osc~;
#X text 588 7 Frequency;
#X text 609 76 Envelope;
#X obj 691 27 inlet;
#X obj 707 95 inlet~;
#X obj 692 122 *~;
#X obj 691 55 osc~;
#X text 681 7 Frequency;
#X text 702 76 Envelope;
#X obj 367 262 outlet~;
#X connect 0 0 3 0;
#X connect 1 0 2 1;
#X connect 2 0 48 0;
#X connect 3 0 2 0;
#X connect 6 0 9 0;
#X connect 7 0 8 1;
#X connect 8 0 48 0;
#X connect 9 0 8 0;
#X connect 12 0 15 0;
#X connect 13 0 14 1;
#X connect 14 0 48 0;
#X connect 15 0 14 0;
#X connect 18 0 21 0;
#X connect 19 0 20 1;
#X connect 20 0 48 0;
#X connect 21 0 20 0;
#X connect 24 0 27 0;
#X connect 25 0 26 1;
#X connect 26 0 48 0;
#X connect 27 0 26 0;
#X connect 30 0 33 0;
#X connect 31 0 32 1;
#X connect 32 0 48 0;
#X connect 33 0 32 0;
#X connect 36 0 39 0;
#X connect 37 0 38 1;
#X connect 38 0 48 0;
#X connect 39 0 38 0;
#X connect 42 0 45 0;
#X connect 43 0 44 1;
#X connect 44 0 48 0;
#X connect 45 0 44 0;
#X coords 0 -1 1 1 300 20 1 100 100;
