#N canvas 364 264 1126 389 10;
#X obj 27 219 unpack;
#X floatatom 82 283 0 0 0 0 - - -;
#X floatatom 31 302 0 0 0 0 - - -;
#X obj 162 218 unpack;
#X floatatom 217 282 0 0 0 0 - - -;
#X floatatom 166 301 0 0 0 0 - - -;
#X obj 300 218 unpack;
#X floatatom 355 282 0 0 0 0 - - -;
#X floatatom 304 301 0 0 0 0 - - -;
#X text 38 75 Individual sinusoidal components;
#X obj 435 219 unpack;
#X floatatom 490 283 0 0 0 0 - - -;
#X floatatom 439 302 0 0 0 0 - - -;
#X obj 570 218 unpack;
#X floatatom 625 282 0 0 0 0 - - -;
#X floatatom 574 301 0 0 0 0 - - -;
#X obj 708 218 unpack;
#X floatatom 763 282 0 0 0 0 - - -;
#X floatatom 712 301 0 0 0 0 - - -;
#X obj 843 218 unpack;
#X floatatom 898 282 0 0 0 0 - - -;
#X floatatom 847 301 0 0 0 0 - - -;
#X obj 978 219 unpack;
#X floatatom 1033 283 0 0 0 0 - - -;
#X floatatom 982 302 0 0 0 0 - - -;
#X obj 27 42 inlet;
#X text 27 21 Last outlet from fiddle~;
#X obj 31 329 outlet;
#X obj 82 310 outlet;
#X obj 166 329 outlet;
#X obj 217 310 outlet;
#X obj 304 329 outlet;
#X obj 355 310 outlet;
#X obj 439 330 outlet;
#X obj 490 311 outlet;
#X obj 574 330 outlet;
#X obj 625 311 outlet;
#X obj 712 329 outlet;
#X obj 763 310 outlet;
#X obj 847 329 outlet;
#X obj 898 310 outlet;
#X obj 982 330 outlet;
#X obj 1033 311 outlet;
#X obj 27 98 route 1 2 3 4 5 6 7 ____________________________________________________________
;
#X text 447 37 ** routeHarmonics.pd ** Outputs the (frequency \, amplitude)
pair of each harmonic identified in the signal by the fiddle~ patch.
;
#X text 35 351 Freq.;
#X text 88 329 Amp.;
#X obj 82 218 r Reset;
#X obj 217 218 r Reset;
#X obj 355 218 r Reset;
#X obj 490 218 r Reset;
#X obj 625 218 r Reset;
#X obj 763 218 r Reset;
#X obj 898 218 r Reset;
#X obj 1033 218 r Reset;
#X obj 268 43 inlet;
#X obj 268 68 s Reset;
#X text 307 42 Reset Bang;
#X obj 31 253 maxStream;
#X obj 166 252 maxStream;
#X obj 304 252 maxStream;
#X obj 439 253 maxStream;
#X obj 574 252 maxStream;
#X obj 712 252 maxStream;
#X obj 847 252 maxStream;
#X obj 982 253 maxStream;
#X connect 0 0 58 0;
#X connect 0 1 58 1;
#X connect 1 0 28 0;
#X connect 2 0 27 0;
#X connect 3 0 59 0;
#X connect 3 1 59 1;
#X connect 4 0 30 0;
#X connect 5 0 29 0;
#X connect 6 0 60 0;
#X connect 6 1 60 1;
#X connect 7 0 32 0;
#X connect 8 0 31 0;
#X connect 10 0 61 0;
#X connect 10 1 61 1;
#X connect 11 0 34 0;
#X connect 12 0 33 0;
#X connect 13 0 62 0;
#X connect 13 1 62 1;
#X connect 14 0 36 0;
#X connect 15 0 35 0;
#X connect 16 0 63 0;
#X connect 16 1 63 1;
#X connect 17 0 38 0;
#X connect 18 0 37 0;
#X connect 19 0 64 0;
#X connect 19 1 64 1;
#X connect 20 0 40 0;
#X connect 21 0 39 0;
#X connect 22 0 65 0;
#X connect 22 1 65 1;
#X connect 23 0 42 0;
#X connect 24 0 41 0;
#X connect 25 0 43 0;
#X connect 43 0 0 0;
#X connect 43 1 3 0;
#X connect 43 2 6 0;
#X connect 43 3 10 0;
#X connect 43 4 13 0;
#X connect 43 5 16 0;
#X connect 43 6 19 0;
#X connect 43 7 22 0;
#X connect 47 0 58 2;
#X connect 48 0 59 2;
#X connect 49 0 60 2;
#X connect 50 0 61 2;
#X connect 51 0 62 2;
#X connect 52 0 63 2;
#X connect 53 0 64 2;
#X connect 54 0 65 2;
#X connect 55 0 56 0;
#X connect 58 0 2 0;
#X connect 58 1 1 0;
#X connect 59 0 5 0;
#X connect 59 1 4 0;
#X connect 60 0 8 0;
#X connect 60 1 7 0;
#X connect 61 0 12 0;
#X connect 61 1 11 0;
#X connect 62 0 15 0;
#X connect 62 1 14 0;
#X connect 63 0 18 0;
#X connect 63 1 17 0;
#X connect 64 0 21 0;
#X connect 64 1 20 0;
#X connect 65 0 24 0;
#X connect 65 1 23 0;
#X coords 0 -1 1 1 300 20 1 100 100;
