#N canvas 413 106 450 300 10;
#X obj 145 37 inlet;
#X obj 145 138 line~;
#X obj 43 156 *~;
#X obj 42 258 outlet~;
#X text 186 34 A bang input is expected;
#X obj 41 224 *~ 50;
#X msg 145 87 1 80;
#X obj 42 190 lop~ 40;
#X obj 202 54 delay 300;
#X msg 202 87 0 100;
#X obj 42 36 phasor~ 210;
#X connect 0 0 6 0;
#X connect 0 0 8 0;
#X connect 1 0 2 1;
#X connect 2 0 7 0;
#X connect 5 0 3 0;
#X connect 6 0 1 0;
#X connect 7 0 5 0;
#X connect 8 0 9 0;
#X connect 9 0 1 0;
#X connect 10 0 2 0;
