#N canvas 1388 201 450 300 10;
#X obj 91 48 inlet~;
#X obj 176 56 inlet;
#X obj 275 72 inlet;
#X obj 226 123 pow;
#X obj 226 89 t b;
#X obj 211 185 *~;
#X obj 210 221 outlet~;
#X text 89 26 Signal;
#X text 229 53 Size of previous delay;
#X text 136 38 Loss per unit delay;
#X connect 0 0 5 0;
#X connect 1 0 3 0;
#X connect 2 0 4 0;
#X connect 2 0 3 1;
#X connect 3 0 5 1;
#X connect 4 0 3 0;
#X connect 5 0 6 0;
#X coords 0 -1 1 1 30 15 1 100 100;
