#N canvas 850 54 973 648 10;
#X obj 43 234 z~;
#X obj 205 270 z~;
#X obj 318 306 z~;
#X obj 432 342 *~;
#X obj 433 412 z~;
#X obj 545 448 z~;
#X obj 707 484 z~;
#X obj 821 520 *~;
#X obj 36 35 inlet;
#X obj 36 74 s leftEndpoint;
#X obj 170 35 inlet;
#X obj 425 33 inlet;
#X obj 536 34 inlet;
#X obj 644 34 inlet;
#X obj 774 34 inlet;
#X obj 170 74 s M;
#X obj 425 72 s N;
#X obj 536 73 s P;
#X obj 774 73 s rightEndpoint;
#X obj 395 301 r P;
#X obj 383 277 r gainPerDelay;
#X obj 644 73 s gainPerDelay;
#X obj 269 241 r gainPerDelay;
#X obj 106 205 r gainPerDelay;
#X obj 772 455 r gainPerDelay;
#X obj 609 418 r gainPerDelay;
#X obj 508 406 r P;
#X obj 496 382 r gainPerDelay;
#X obj 836 497 r leftEndpoint;
#X obj 447 318 r rightEndpoint;
#X obj 333 283 r P;
#X obj 448 388 r P;
#X obj 58 210 r M;
#X obj 118 229 r M;
#X obj 220 247 r N;
#X obj 281 265 r N;
#X obj 560 424 r N;
#X obj 621 442 r N;
#X obj 722 460 r M;
#X obj 784 479 r M;
#X obj 289 35 inlet~;
#X obj 822 579 s~ \$0-vibration;
#X obj 43 175 r~ \$0-vibration;
#X obj 95 252 g~;
#X obj 258 288 g~;
#X obj 372 324 g~;
#X obj 485 430 g~;
#X obj 598 466 g~;
#X obj 761 502 g~;
#X obj 289 74 s~ \$0-excitation;
#X obj 205 175 r~ \$0-excitation;
#X obj 706 383 r~ \$0-excitation;
#X obj 258 448 s~ Pos;
#X text 234 466 Position signal;
#X obj 44 306 r~ Pos;
#X obj 82 361 z~ 1;
#X obj 83 455 z~ 1;
#X obj 84 417 s~ Vel;
#X obj 46 521 s~ Accel;
#X obj 148 569 r~ Pos;
#X obj 148 596 outlet~;
#X obj 295 596 outlet~;
#X obj 446 596 outlet~;
#X text 70 399 Derivation approx.;
#X text 71 494 Derivation approx.;
#X obj 45 400 -~;
#X obj 46 494 -~;
#X text 125 615 Position output;
#X text 271 615 Velocity output;
#X text 411 614 Acceleration output;
#X obj 295 569 r~ Vel;
#X obj 446 569 r~ Accel;
#X connect 0 0 43 0;
#X connect 1 0 44 0;
#X connect 2 0 45 0;
#X connect 3 0 4 0;
#X connect 4 0 46 0;
#X connect 5 0 47 0;
#X connect 6 0 48 0;
#X connect 7 0 41 0;
#X connect 8 0 9 0;
#X connect 10 0 15 0;
#X connect 11 0 16 0;
#X connect 12 0 17 0;
#X connect 13 0 21 0;
#X connect 14 0 18 0;
#X connect 19 0 45 2;
#X connect 20 0 45 1;
#X connect 22 0 44 1;
#X connect 23 0 43 1;
#X connect 24 0 48 1;
#X connect 25 0 47 1;
#X connect 26 0 46 2;
#X connect 27 0 46 1;
#X connect 28 0 7 1;
#X connect 29 0 3 1;
#X connect 30 0 2 1;
#X connect 31 0 4 1;
#X connect 32 0 0 1;
#X connect 33 0 43 2;
#X connect 34 0 1 1;
#X connect 35 0 44 2;
#X connect 36 0 5 1;
#X connect 37 0 47 2;
#X connect 38 0 6 1;
#X connect 39 0 48 2;
#X connect 40 0 49 0;
#X connect 42 0 0 0;
#X connect 43 0 1 0;
#X connect 44 0 2 0;
#X connect 44 0 52 0;
#X connect 45 0 3 0;
#X connect 46 0 5 0;
#X connect 46 0 52 0;
#X connect 47 0 6 0;
#X connect 48 0 7 0;
#X connect 50 0 1 0;
#X connect 51 0 6 0;
#X connect 54 0 55 0;
#X connect 54 0 65 0;
#X connect 55 0 65 1;
#X connect 56 0 66 1;
#X connect 59 0 60 0;
#X connect 65 0 56 0;
#X connect 65 0 57 0;
#X connect 65 0 66 0;
#X connect 66 0 58 0;
#X connect 70 0 61 0;
#X connect 71 0 62 0;
