#N canvas 1072 361 450 300 10;
#X obj 32 26 noise~;
#X obj 88 27 inlet;
#X msg 145 77 0 40;
#X obj 145 44 delay 20;
#X obj 88 128 line~;
#X obj 33 146 *~;
#X obj 32 180 lop~ 40;
#X obj 31 214 *~ 50;
#X obj 32 248 outlet~;
#X text 129 24 A bang input is expected;
#X msg 88 77 1 20;
#X connect 0 0 5 0;
#X connect 1 0 3 0;
#X connect 1 0 10 0;
#X connect 2 0 4 0;
#X connect 3 0 2 0;
#X connect 4 0 5 1;
#X connect 5 0 6 0;
#X connect 6 0 7 0;
#X connect 7 0 8 0;
#X connect 10 0 4 0;
