#N canvas 285 352 450 266 10;
#X obj 20 36 inlet;
#X text 8 17 LFO Speed;
#X text 110 15 ** LFO **;
#X text 85 33 LFO Speed: 0-10 Hz;
#X obj 20 72 osc~;
#X obj 20 136 outlet~;
#X obj 20 106 *~;
#X msg 71 89 1;
#X obj 71 64 loadbang;
#X connect 0 0 4 0;
#X connect 4 0 6 0;
#X connect 6 0 5 0;
#X connect 7 0 6 1;
#X connect 8 0 7 0;
