#N canvas 289 23 920 855 10;
#X obj 279 29 cnv 15 262 238 foo10_snd foo10_rcv VCF 116 -12 1 15 -204786
-1 0;
#X obj 344 60 knob 32 32 0 1000 0 0 empty empty Attack 0 -15 1 10 -191407
-4160 -1 155 1;
#X floatatom 344 102 5 0 0 0 - - -;
#X obj 393 60 knob 32 32 0 1000 0 0 empty empty Decay 0 -15 1 10 -191407
-4160 -1 1240 1;
#X floatatom 393 102 5 0 0 0 - - -;
#X obj 442 60 knob 32 32 0 100 0 0 empty empty Sustain -2 -15 1 10
-191407 -4160 -1 1550 1;
#X floatatom 442 102 5 0 0 0 - - -;
#X obj 492 60 knob 32 32 0 1000 0 0 empty empty Release -3 -15 1 10
-191407 -4160 -1 1550 1;
#X floatatom 492 102 5 0 0 0 - - -;
#X obj 295 60 knob 32 32 55 10000 0 0 empty empty Cut_off -2 -15 1
10 -191407 -4160 -1 606 1;
#X floatatom 295 102 5 0 0 0 - - -;
#X obj 295 176 knob 32 32 1 4 0 0 empty empty Resonance -15 -15 1 10
-191407 -4160 -1 517 1;
#X floatatom 295 218 5 0 0 0 - - -;
#X obj 337 150 cnv 15 203 117 foo10_snd foo10_rcv VCA 83 130 1 17 -4034
-1 0;
#X obj 295 126 s fco;
#X obj 346 176 knob 32 32 0 1000 0 0 empty empty Attack 0 -15 1 10
-191407 -4160 -1 155 1;
#X floatatom 346 218 5 0 0 0 - - -;
#X obj 395 176 knob 32 32 0 1000 0 0 empty empty Decay 0 -15 1 10 -191407
-4160 -1 2480 1;
#X floatatom 395 218 5 0 0 0 - - -;
#X obj 444 176 knob 32 32 0 100 0 0 empty empty Sustain -2 -15 1 10
-191407 -4160 -1 2480 1;
#X floatatom 444 218 5 0 0 0 - - -;
#X obj 494 176 knob 32 32 0 1000 0 0 empty empty Release -3 -15 1 10
-191407 -4160 -1 310 1;
#X floatatom 494 218 5 0 0 0 - - -;
#X obj 295 242 s res;
#X obj 346 242 s aatk;
#X obj 395 242 s adec;
#X obj 444 242 s asus;
#X obj 494 242 s arel;
#X obj 344 126 s fatk;
#X obj 393 126 s fdec;
#X obj 442 126 s fsus;
#X obj 492 126 s frel;
#X obj 16 29 cnv 15 262 238 foo10_snd foo10_rcv Steinberg_NEON 75 -12
1 15 -83269 -1 0;
#X obj 42 61 hradio 30 1 0 3 empty empty Range_(4_8_16) 5 -15 1 10
-258113 -86277 -1 1;
#X obj 162 61 hradio 30 1 0 3 empty empty Waveform 20 -20 1 10 -258113
-86277 -1 2;
#X text 166 43 tri. saw. sq.;
#X obj 69 166 knob 32 32 0 9 0 0 empty empty LFO_Speed -12 -20 1 10
-191407 -4160 -1 0 1;
#X floatatom 69 208 5 0 0 0 - - -;
#X obj 190 166 knob 32 32 -7 7 0 0 empty empty Osc2_Detune -15 -20
1 10 -191407 -4160 -1 3100 1;
#X floatatom 190 208 5 0 0 0 - - -;
#X obj 42 100 s range;
#X obj 162 100 s wavf;
#X obj 69 232 s lfos;
#X obj 190 232 s osc2det;
#X obj 260 275 r lfos;
#X obj 137 720 snapshot~;
#X obj 137 691 metro 10;
#X obj 137 668 tgl 15 1 empty empty empty 17 7 0 10 -228856 -1 -1 1
1;
#X obj 137 745 nbx 5 14 -1e+37 1e+37 0 0 empty empty empty 0 -8 0 10
-261682 -1 -1 0.978953 256;
#X obj 202 680 tgl 15 0 empty empty empty 17 7 0 10 -262144 -1 -1 1
1;
#X obj 223 522 r aatk;
#X obj 229 567 r adec;
#X obj 236 612 r asus;
#X obj 243 657 r arel;
#X floatatom 223 545 5 0 0 0 - - -;
#X floatatom 229 590 5 0 0 0 - - -;
#X floatatom 236 635 5 0 0 0 - - -;
#X floatatom 243 681 5 0 0 0 - - -;
#X obj -73 718 snapshot~;
#X obj -73 689 metro 10;
#X obj -73 666 tgl 15 1 empty empty empty 17 7 0 10 -228856 -1 -1 1
1;
#X obj -73 743 nbx 5 14 -1e+37 1e+37 0 0 empty empty empty 0 -8 0 10
-261682 -1 -1 0.894573 256;
#X obj -7 678 tgl 15 0 empty empty empty 17 7 0 10 -262144 -1 -1 1
1;
#X obj 1 702 adsr 1;
#X floatatom 14 543 5 0 0 0 - - -;
#X floatatom 20 588 5 0 0 0 - - -;
#X floatatom 27 633 5 0 0 0 - - -;
#X floatatom 34 679 5 0 0 0 - - -;
#X obj 432 491 r wavf;
#X obj 611 378 r wavf;
#X obj -40 457 s freq;
#X obj 145 635 r checkNote;
#X obj -65 633 r checkNote;
#X obj 459 638 moog~;
#X obj 610 604 r res;
#X obj 14 520 r fatk;
#X obj 20 565 r fdec;
#X obj 27 610 r fsus;
#X obj 34 655 r frel;
#X obj 1 779 s~ adsrVCF;
#X obj 606 499 r~ adsrVCF;
#X obj 211 763 s~ adsrVCA;
#X obj 460 692 *~;
#X obj 474 664 r~ adsrVCA;
#X obj 260 316 lfo~;
#X obj 374 333 snapshot~;
#X obj 374 281 tgl 15 1 empty empty empty 17 7 0 10 -228856 -1 -1 1
1;
#X obj 407 359 nbx 5 14 -1e+37 1e+37 0 0 empty empty empty 0 -8 0 10
-261682 -1 -1 1 256;
#X obj 590 352 *;
#X obj 335 457 *;
#X obj 460 726 output~;
#X floatatom 556 379 5 0 0 0 - - -;
#X obj 590 240 r freq;
#X floatatom 661 354 5 0 0 0 - - -;
#X obj 672 252 r osc2det;
#X obj 672 309 / 12;
#X obj 621 326 pow;
#X msg 621 298 2;
#X obj 605 269 t b;
#X obj 396 403 / 12;
#X obj 277 399 r freq;
#X obj 335 364 t b;
#X msg 350 403 2;
#X obj 350 431 pow;
#X obj 607 536 *~;
#X obj 674 458 r fco;
#X obj 210 735 *~;
#X obj 210 704 adsr 1;
#X obj 1 754 *~;
#N canvas 1169 508 450 300 initialize 0;
#X obj 16 16 loadbang;
#X msg 16 41 \; irange 1 \; iwavf 2 \; ilfos 0 \; iosc2det 7 \; ifco
2000 \; ifatk 50 \; ifdec 400 \; ifsus 50 \; ifrel 500 \; ires 1.5
\; iaatk 50 \; iadec 800 \; iasus 80 \; iarel 100 \;;
#X connect 0 0 1 0;
#X restore 617 78 pd initialize;
#X obj 723 157 r iarel;
#X obj 676 157 r iasus;
#X obj 629 157 r iadec;
#X obj 582 157 r iaatk;
#X obj 541 157 r ires;
#X obj 724 41 r ifrel;
#X obj 677 41 r ifsus;
#X obj 630 41 r ifdec;
#X obj 583 41 r ifatk;
#X obj 542 41 r ifco;
#X obj -31 44 r iwavf;
#X obj -84 44 r irange;
#X text 136 599 * ADSR VCA *;
#X obj -49 147 r iosc2det;
#X obj -96 147 r ilfos;
#X obj -40 428 *;
#X floatatom -91 445 5 0 0 0 - - -;
#X floatatom -90 410 5 0 0 0 - - -;
#X obj 48 411 pow;
#X msg 48 383 2;
#X obj 32 354 t b;
#X obj 125 305 r range;
#X obj 125 394 - 1;
#X obj 32 322 select 0 1 2;
#X msg 625 109 \; pd dsp 0 \;;
#X text 37 286 * Key in *;
#X obj -40 338 key;
#X obj -75 240 keyname;
#X obj -75 265 change;
#X obj -75 291 s checkNote;
#X obj 735 468 r freq;
#X obj 707 519 +;
#X obj 707 485 t b;
#X obj 608 570 +~;
#X obj 694 553 r freq;
#X obj 2 727 +~ 0.2;
#X obj 170 448 expr $f1 \; if($f1==0 \, $f2 \, $f3);
#X obj 286 500 nbx 5 14 -1e+37 1e+37 0 0 empty empty empty 0 -8 0 10
-261682 -1 -1 116.541 256;
#X obj -40 393 * 2;
#X obj 411 542 /~ 2;
#X obj 545 502 /~ 2;
#X obj 374 304 metro 0.025;
#X text 595 747 | | | | | | | |;
#X text 595 737 |'a'|'s'|'d'|'f'|'g'|'h'|'j'|;
#X text 595 726 | | | | | | | |;
#X text 607 716 |___| |___|___| |___|___|;
#X text 601 668 Map: Keyboard -> Piano notes;
#X text 307 297 * LFO *;
#X text 37 297 **********;
#X text 37 277 **********;
#X text 307 309 *******;
#X text 307 287 *******;
#X text 288 10 "Sweep";
#X text 136 611 ************;
#X text 136 588 ************;
#X text -67 610 ************;
#X text -67 587 ************;
#X text -67 598 * ADSR VCF *;
#X text 447 521 * VCO1 *;
#X text 447 510 ********;
#X text 447 533 ********;
#X text 523 399 ********;
#X text 523 422 ********;
#X text 523 410 * VCO2 *;
#X text 403 642 * VCF *;
#X text 403 631 *******;
#X text 403 654 *******;
#X text 350 643;
#X text 607 695 | | | | | | | |;
#X text 595 766 |___|___|___|___|___|___|___|;
#X text 595 756 |A2 |B2 |C2 |D2 |E2 |F2 |G2 |;
#X text 607 705 |A#2| |C#2|D#2| |F#2|G#2|;
#X text 607 695;
#X text 607 686 |'w'| |'r'|'t'| |'u'|'i'|;
#X obj -40 367 mynotes;
#X obj 590 405 vco~;
#X obj 411 518 vco~;
#X connect 1 0 2 0;
#X connect 2 0 28 0;
#X connect 3 0 4 0;
#X connect 4 0 29 0;
#X connect 5 0 6 0;
#X connect 6 0 30 0;
#X connect 7 0 8 0;
#X connect 8 0 31 0;
#X connect 9 0 10 0;
#X connect 10 0 14 0;
#X connect 11 0 12 0;
#X connect 12 0 23 0;
#X connect 15 0 16 0;
#X connect 16 0 24 0;
#X connect 17 0 18 0;
#X connect 18 0 25 0;
#X connect 19 0 20 0;
#X connect 20 0 26 0;
#X connect 21 0 22 0;
#X connect 22 0 27 0;
#X connect 33 0 40 0;
#X connect 34 0 41 0;
#X connect 36 0 37 0;
#X connect 37 0 42 0;
#X connect 38 0 39 0;
#X connect 39 0 43 0;
#X connect 44 0 84 0;
#X connect 44 0 146 0;
#X connect 45 0 48 0;
#X connect 46 0 45 0;
#X connect 47 0 46 0;
#X connect 49 0 107 0;
#X connect 50 0 54 0;
#X connect 51 0 55 0;
#X connect 52 0 56 0;
#X connect 53 0 57 0;
#X connect 54 0 107 2;
#X connect 55 0 107 3;
#X connect 56 0 107 4;
#X connect 57 0 107 5;
#X connect 58 0 61 0;
#X connect 59 0 58 0;
#X connect 60 0 59 0;
#X connect 62 0 63 0;
#X connect 63 0 58 0;
#X connect 63 0 145 0;
#X connect 64 0 63 2;
#X connect 65 0 63 3;
#X connect 66 0 63 4;
#X connect 67 0 63 5;
#X connect 68 0 186 1;
#X connect 69 0 185 1;
#X connect 71 0 49 0;
#X connect 72 0 62 0;
#X connect 73 0 82 0;
#X connect 74 0 73 2;
#X connect 75 0 64 0;
#X connect 76 0 65 0;
#X connect 77 0 66 0;
#X connect 78 0 67 0;
#X connect 80 0 104 0;
#X connect 82 0 90 0;
#X connect 82 0 90 1;
#X connect 83 0 82 1;
#X connect 84 0 85 0;
#X connect 85 0 87 0;
#X connect 85 0 101 0;
#X connect 85 0 99 0;
#X connect 86 0 151 0;
#X connect 88 0 91 0;
#X connect 88 0 185 0;
#X connect 89 0 146 2;
#X connect 92 0 88 0;
#X connect 94 0 95 0;
#X connect 94 0 98 0;
#X connect 95 0 96 1;
#X connect 96 0 88 1;
#X connect 96 0 93 0;
#X connect 97 0 96 0;
#X connect 98 0 97 0;
#X connect 98 0 88 0;
#X connect 99 0 103 1;
#X connect 100 0 89 0;
#X connect 100 0 146 1;
#X connect 101 0 102 0;
#X connect 101 0 89 0;
#X connect 102 0 103 0;
#X connect 103 0 89 1;
#X connect 104 0 143 0;
#X connect 105 0 141 0;
#X connect 106 0 81 0;
#X connect 107 0 106 0;
#X connect 107 0 106 1;
#X connect 107 0 45 0;
#X connect 108 0 79 0;
#X connect 110 0 21 0;
#X connect 111 0 19 0;
#X connect 112 0 17 0;
#X connect 113 0 15 0;
#X connect 114 0 11 0;
#X connect 115 0 7 0;
#X connect 116 0 5 0;
#X connect 117 0 3 0;
#X connect 118 0 1 0;
#X connect 119 0 9 0;
#X connect 120 0 34 0;
#X connect 121 0 33 0;
#X connect 123 0 38 0;
#X connect 124 0 36 0;
#X connect 125 0 70 0;
#X connect 125 0 126 0;
#X connect 128 0 125 1;
#X connect 129 0 128 0;
#X connect 130 0 129 0;
#X connect 130 0 125 0;
#X connect 131 0 132 0;
#X connect 131 0 133 0;
#X connect 132 0 128 1;
#X connect 133 0 130 0;
#X connect 133 1 130 0;
#X connect 133 2 130 0;
#X connect 136 0 184 0;
#X connect 137 0 138 0;
#X connect 138 0 139 0;
#X connect 140 0 141 1;
#X connect 140 0 142 0;
#X connect 141 0 104 1;
#X connect 142 0 141 0;
#X connect 143 0 73 1;
#X connect 144 0 143 1;
#X connect 145 0 108 0;
#X connect 145 0 108 1;
#X connect 146 1 147 0;
#X connect 146 1 186 0;
#X connect 148 0 125 0;
#X connect 148 0 127 0;
#X connect 149 0 73 0;
#X connect 150 0 73 0;
#X connect 151 0 85 0;
#X connect 151 0 146 0;
#X connect 184 0 148 0;
#X connect 185 0 150 0;
#X connect 186 0 149 0;
