#N canvas 0 104 1394 760 10;
#X msg 135 410 55;
#X msg 198 409 58.2705;
#X msg 262 409 61.7354;
#X msg 326 409 65.4064;
#X msg 390 409 69.2957;
#X msg 456 409 73.4162;
#X msg 525 408 77.7817;
#X msg 592 407 82.4069;
#X msg 669 408 87.3071;
#X msg 741 407 92.4986;
#X msg 813 407 97.9989;
#X msg 890 406 103.826;
#X text 151 390 A;
#X text 272 387 B;
#X text 341 387 C;
#X text 471 387 D;
#X text 607 385 E;
#X text 682 384 F;
#X text 826 385 G;
#X text 212 389 A#/Bb;
#X text 404 388 C#/Db;
#X text 538 386 D#/Eb;
#X text 755 388 F#/Gb;
#X text 901 388 G#/Ab;
#X obj 198 346 sel 119;
#X obj 262 346 sel 115;
#X obj 326 346 sel 100;
#X obj 390 346 sel 114;
#X obj 456 345 sel 102;
#X obj 525 345 sel 116;
#X obj 592 344 sel 103;
#X obj 669 345 sel 104;
#X obj 741 346 sel 117;
#X obj 813 345 sel 106;
#X obj 890 347 sel 105;
#X text 161 325 "a";
#X text 225 324 "w";
#X text 289 325 "s";
#X text 348 324 "d";
#X text 404 323 "r";
#X text 470 324 "f";
#X text 536 323 "t";
#X text 604 322 "g";
#X text 680 323 "h";
#X text 752 323 "u";
#X text 822 323 "j";
#X text 901 323 "i";
#X obj 497 30 inlet;
#X floatatom 497 59 5 0 0 0 - - -;
#X obj 135 347 sel 97;
#X obj 979 346 sel 107;
#X text 990 324 "k";
#X text 992 383 A;
#X obj 1046 345 sel 111;
#X text 1058 323 "o";
#X text 1134 324 "l";
#X text 1206 324 "ö";
#X text 1276 324 "ü";
#X text 1355 324 "ä";
#X obj 1123 346 sel 108;
#X obj 1195 347 sel 246;
#X obj 1267 346 sel 252;
#X obj 1344 348 sel 228;
#X msg 979 405 110;
#X msg 1046 405 116.541;
#X msg 1123 406 123.471;
#X msg 1195 408 130.813;
#X msg 1267 408 138.591;
#X msg 1344 407 146.832;
#X obj 498 637 outlet;
#X text 1145 385 B;
#X text 1214 385 C;
#X text 1364 384 D;
#X text 1054 385 A#/Bb;
#X text 1277 386 C#/Db;
#X text 1436 385 D#/Eb;
#X text 1432 324 "+";
#X obj 1421 348 sel 43;
#X msg 1421 407 155.563;
#X text 34 18 Input: keyboard keys \; Output: frequency value \;;
#X text 37 324 Keyboard keys:;
#X text 535 29 "key" object;
#X text 545 637 output frequency;
#X connect 0 0 69 0;
#X connect 1 0 69 0;
#X connect 2 0 69 0;
#X connect 3 0 69 0;
#X connect 4 0 69 0;
#X connect 5 0 69 0;
#X connect 6 0 69 0;
#X connect 7 0 69 0;
#X connect 8 0 69 0;
#X connect 9 0 69 0;
#X connect 10 0 69 0;
#X connect 11 0 69 0;
#X connect 24 0 1 0;
#X connect 25 0 2 0;
#X connect 26 0 3 0;
#X connect 27 0 4 0;
#X connect 28 0 5 0;
#X connect 29 0 6 0;
#X connect 30 0 7 0;
#X connect 31 0 8 0;
#X connect 32 0 9 0;
#X connect 33 0 10 0;
#X connect 34 0 11 0;
#X connect 47 0 48 0;
#X connect 48 0 24 0;
#X connect 48 0 25 0;
#X connect 48 0 26 0;
#X connect 48 0 27 0;
#X connect 48 0 28 0;
#X connect 48 0 29 0;
#X connect 48 0 30 0;
#X connect 48 0 31 0;
#X connect 48 0 32 0;
#X connect 48 0 33 0;
#X connect 48 0 34 0;
#X connect 48 0 49 0;
#X connect 48 0 50 0;
#X connect 48 0 53 0;
#X connect 48 0 59 0;
#X connect 48 0 60 0;
#X connect 48 0 61 0;
#X connect 48 0 62 0;
#X connect 48 0 77 0;
#X connect 49 0 0 0;
#X connect 50 0 63 0;
#X connect 53 0 64 0;
#X connect 59 0 65 0;
#X connect 60 0 66 0;
#X connect 61 0 67 0;
#X connect 62 0 68 0;
#X connect 63 0 69 0;
#X connect 64 0 69 0;
#X connect 65 0 69 0;
#X connect 66 0 69 0;
#X connect 67 0 69 0;
#X connect 68 0 69 0;
#X connect 77 0 78 0;
#X connect 78 0 69 0;
