#N canvas 375 397 493 250 10;
#X obj 14 15 inlet;
#X obj 14 45 phasor~;
#X obj 13 77 expr~ $v1 > 0.5;
#X obj 12 183 outlet~;
#X obj 12 109 -~ 0.5;
#X obj 12 146 *~ 2;
#X text 249 15 - SQUARE WAVE GENERATOR -;
#X text 59 14 Fundamental frequency;
#X text 70 46 Sawtooth wave;
#X text 120 77 Transform sawtooth waveform into a square waveform;
#X text 70 183 Audio signal output;
#X connect 0 0 1 0;
#X connect 1 0 2 0;
#X connect 2 0 4 0;
#X connect 4 0 5 0;
#X connect 5 0 3 0;
